<svg width="14" height="15" viewBox="0 0 14 15" fill="none" xmlns="http://www.w3.org/2000/svg">
<path fill-rule="evenodd" clip-rule="evenodd" d="M3.76865 2.61386C4.62699 1.75915 5.78869 1.27884 7 1.27783C8.21198 1.27782 9.37467 1.75767 10.2339 2.61249C11.093 3.4673 11.5788 4.62753 11.585 5.8395C11.585 7.65196 10.5702 9.16618 9.82781 10.2739L9.82333 10.2806L9.68722 10.4867C8.94422 11.5633 8.14728 12.6017 7.29944 13.5978L7.00389 13.9439L6.70833 13.5978C5.86039 12.6018 5.06344 11.5634 4.32055 10.4867L4.18444 10.2845C3.43778 9.17617 2.41889 7.65561 2.41889 5.8395C2.42505 4.6282 2.9103 3.46856 3.76865 2.61386ZM7 7.5C8.10457 7.5 9 6.60457 9 5.5C9 4.39543 8.10457 3.5 7 3.5C5.89543 3.5 5 4.39543 5 5.5C5 6.60457 5.89543 7.5 7 7.5Z" fill="#00ADEF"/>
</svg>
