<svg width="14" height="15" viewBox="0 0 14 15" fill="none" xmlns="http://www.w3.org/2000/svg">
<path d="M8.68318 13.809C8.57009 13.9557 8.41753 14.0292 8.22547 14.0294L5.97997 14.0221C5.86312 14.0264 5.74656 14.0078 5.63688 13.9673C5.52283 13.9288 5.41546 13.8728 5.31857 13.8013C5.31286 13.7956 5.29452 13.78 5.26339 13.7548C5.23225 13.7295 5.19437 13.6941 5.14905 13.6488C5.0418 13.5415 4.88654 13.3496 4.68326 13.0729C4.47998 12.7962 4.27731 12.4123 4.07525 11.9211C3.87214 11.43 3.6944 10.8201 3.542 10.0915C3.38961 9.3629 3.31644 8.4989 3.32249 7.49951C3.31707 6.71433 3.36249 6.01404 3.45876 5.39862C3.55502 4.78321 3.67497 4.24547 3.81859 3.78542C3.96314 3.32467 4.11875 2.93186 4.28541 2.60699C4.45207 2.28212 4.61006 2.01643 4.75938 1.80991C4.90997 1.60374 5.03874 1.45282 5.1457 1.35717C5.253 1.26128 5.31236 1.20745 5.32361 1.1962C5.42045 1.1251 5.52776 1.0695 5.64168 1.03139C5.7511 0.990931 5.86736 0.972208 5.98393 0.976272L8.23791 0.975098C8.39606 0.975167 8.52592 1.026 8.62752 1.12759C8.69872 1.19663 8.74484 1.28746 8.75859 1.3857C8.77264 1.48593 8.76833 1.58789 8.74588 1.6866L7.9319 4.31298C7.89258 4.45373 7.80183 4.57461 7.67763 4.65166C7.55498 4.73445 7.41044 4.77877 7.26251 4.77896L6.432 4.7792C6.40227 4.78139 6.37339 4.79008 6.34738 4.80466C6.31941 4.81756 6.2936 4.83473 6.27089 4.85555C6.17534 4.99723 6.09062 5.18365 6.01673 5.41483C5.94896 5.61798 5.88815 5.88763 5.8343 6.22377C5.78045 6.55992 5.75633 6.98487 5.76195 7.49863C5.75569 8.01228 5.77962 8.44005 5.83373 8.78193C5.88785 9.1238 5.94706 9.39486 6.01136 9.59509C6.07625 9.79543 6.13694 9.93804 6.19343 10.0229L6.278 10.1497C6.29856 10.167 6.32145 10.1812 6.34599 10.1921C6.37185 10.207 6.40081 10.2157 6.43059 10.2175L7.40489 10.2087C7.59061 10.2173 7.76614 10.2959 7.89604 10.4289C7.99198 10.5248 8.05124 10.618 8.07383 10.7084L8.0823 10.7169L8.75063 13.3171C8.79567 13.5093 8.77308 13.6732 8.68283 13.8086L8.68318 13.809Z" fill="#00ADEF"/>
</svg>
