<svg width="28" height="29" viewBox="0 0 28 29" fill="none" xmlns="http://www.w3.org/2000/svg">
<path d="M27.9869 22.0976C28.0458 22.5524 27.9074 22.948 27.5715 23.2844L23.6291 27.2017C23.4321 27.4137 23.1956 27.5852 22.9328 27.7063C22.6657 27.8384 22.3798 27.9283 22.0852 27.9729C22.0653 27.9729 22.0059 27.9777 21.9073 27.988C21.8086 27.9983 21.6802 28.0026 21.5216 28.0026C21.1462 28.0026 20.5386 27.9383 19.6987 27.8099C18.8588 27.6815 17.8322 27.3642 16.6189 26.8582C15.404 26.3541 14.0257 25.5978 12.4839 24.5893C10.9421 23.5808 9.30203 22.1967 7.56367 20.437C6.18008 19.0723 5.03402 17.7672 4.12549 16.5216C3.21696 15.276 2.48582 14.1249 1.93206 13.0684C1.37871 12.009 0.963592 11.0492 0.686714 10.1889C0.409836 9.32862 0.221349 8.58709 0.121253 7.9643C0.0239822 7.3399 -0.0147646 6.85039 0.00501245 6.49578C0.0249913 6.14016 0.034678 5.94206 0.034678 5.90268C0.0797257 5.60876 0.170208 5.32364 0.302879 5.05756C0.42357 4.79522 0.594259 4.55898 0.805376 4.36207L4.74786 0.415121C5.02474 0.138461 5.34097 0.000130949 5.69655 0.000130949C5.94198 -0.00365118 6.18166 0.0745899 6.37765 0.222469C6.57764 0.373295 6.74853 0.559285 6.88196 0.771346L10.0538 6.79264C10.2312 7.1078 10.284 7.47819 10.2015 7.83042C10.1317 8.18996 9.95633 8.5205 9.69777 8.77974L8.24476 10.2337C8.19658 10.2896 8.16124 10.3553 8.14124 10.4264C8.11485 10.4979 8.09974 10.5731 8.09643 10.6493C8.17716 11.0645 8.35515 11.5391 8.63041 12.073C8.86734 12.5472 9.23281 13.1255 9.72683 13.8081C10.2208 14.4906 10.9223 15.2766 11.8313 16.166C12.7192 17.0759 13.5097 17.7827 14.2027 18.2863C14.8957 18.79 15.4737 19.1608 15.9366 19.3986C16.4008 19.6357 16.7565 19.7791 17.004 19.8288L17.3739 19.9027C17.44 19.8969 17.505 19.8818 17.567 19.8579C17.6383 19.8386 17.7042 19.8032 17.7595 19.7543L19.4492 18.0337C19.7892 17.7236 20.234 17.554 20.694 17.5594C21.0298 17.5594 21.2966 17.6187 21.4944 17.7375H21.524L27.244 21.1186C27.6593 21.3763 27.9065 21.7026 27.9857 22.0976H27.9869Z" fill="#00ADEF"/>
</svg>
