<svg width="28" height="29" fill="none" xmlns="http://www.w3.org/2000/svg"><path d="M27.987 22.098c.059.454-.08.85-.415 1.186l-3.943 3.918a2.218 2.218 0 01-.696.504 2.886 2.886 0 01-.848.267c-.02 0-.08.005-.178.015-.098.01-.227.015-.385.015-.376 0-.983-.065-1.823-.193s-1.867-.446-3.08-.952c-1.215-.504-2.593-1.26-4.135-2.269-1.542-1.008-3.182-2.392-4.92-4.152-1.384-1.365-2.53-2.67-3.439-3.915-.908-1.246-1.64-2.397-2.193-3.454C1.38 12.01.964 11.05.687 10.188.41 9.329.22 8.589.12 7.965.024 7.34-.015 6.85.005 6.496c.02-.356.03-.554.03-.593.045-.294.135-.58.268-.845a2.22 2.22 0 01.502-.696L4.748.415C5.025.138 5.34 0 5.697 0c.245-.004.485.075.68.222.2.151.372.337.505.55l3.172 6.02c.177.316.23.686.147 1.038-.07.36-.245.69-.503.95l-1.453 1.454a.504.504 0 00-.104.192.736.736 0 00-.045.223c.081.416.26.89.534 1.424.237.474.603 1.053 1.097 1.735.494.683 1.195 1.469 2.104 2.358.888.91 1.679 1.617 2.372 2.12.693.504 1.27.875 1.734 1.113.464.237.82.38 1.067.43l.37.074a.71.71 0 00.193-.045.48.48 0 00.192-.104l1.69-1.72c.34-.31.785-.48 1.245-.475.336 0 .603.06.8.178h.03l5.72 3.382c.415.257.663.584.742.979z" fill="#00ADEF"/></svg>